# xmcd
#
# Track frame offsets: 
#        150
#        24201
#        43458
#        65865
#        81230
#        96444
#        112783
#        124075
#        138390
#        158236
#
# Disc length: 2291 seconds
#
# Revision: 1
# Processed by: cddbd v1.5.2PL0 Copyright (c) Steve Scherf et al.
# Submitted via: ExactAudioCopy v0.99pb4
#
DISCID=8808f10a
DTITLE=Jacks - Vacant World
DYEAR=1900
DGENRE=Japanese Rock
TTITLE0=Marianne
TTITLE1=Stop The Clock
TTITLE2=Vacant World
TTITLE3=In The Broken Mirror
TTITLE4=Gloomy Flower
TTITLE5=Love Generation
TTITLE6=Bara-Manji
TTITLE7=Where?
TTITLE8=Love
TTITLE9=500 Miles From The Sky
EXTD=
EXTT0=
EXTT1=
EXTT2=
EXTT3=
EXTT4=
EXTT5=
EXTT6=
EXTT7=
EXTT8=
EXTT9=
PLAYORDER=
